<svg id="visual" viewBox="0 0 1000 100" width="1000" height="100" xmlns="http://www.w3.org/2000/svg" xmlns:xlink="http://www.w3.org/1999/xlink" version="1.1"><path d="M0 47L16.7 42.8C33.3 38.7 66.7 30.3 100 26C133.3 21.7 166.7 21.3 200 24C233.3 26.7 266.7 32.3 300 35.2C333.3 38 366.7 38 400 37.5C433.3 37 466.7 36 500 36.8C533.3 37.7 566.7 40.3 600 42.5C633.3 44.7 666.7 46.3 700 46.2C733.3 46 766.7 44 800 41C833.3 38 866.7 34 900 31.3C933.3 28.7 966.7 27.3 983.3 26.7L1000 26L1000 101L983.3 101C966.7 101 933.3 101 900 101C866.7 101 833.3 101 800 101C766.7 101 733.3 101 700 101C666.7 101 633.3 101 600 101C566.7 101 533.3 101 500 101C466.7 101 433.3 101 400 101C366.7 101 333.3 101 300 101C266.7 101 233.3 101 200 101C166.7 101 133.3 101 100 101C66.7 101 33.3 101 16.7 101L0 101Z" fill="#006b31"></path><path d="M0 32L16.7 33.2C33.3 34.3 66.7 36.7 100 41.2C133.3 45.7 166.7 52.3 200 52.5C233.3 52.7 266.7 46.3 300 42.3C333.3 38.3 366.7 36.7 400 36C433.3 35.3 466.7 35.7 500 38.2C533.3 40.7 566.7 45.3 600 48.7C633.3 52 666.7 54 700 52.5C733.3 51 766.7 46 800 42.3C833.3 38.7 866.7 36.3 900 35.7C933.3 35 966.7 36 983.3 36.5L1000 37L1000 101L983.3 101C966.7 101 933.3 101 900 101C866.7 101 833.3 101 800 101C766.7 101 733.3 101 700 101C666.7 101 633.3 101 600 101C566.7 101 533.3 101 500 101C466.7 101 433.3 101 400 101C366.7 101 333.3 101 300 101C266.7 101 233.3 101 200 101C166.7 101 133.3 101 100 101C66.7 101 33.3 101 16.7 101L0 101Z" fill="#02521a"></path><path d="M0 48L16.7 49.7C33.3 51.3 66.7 54.7 100 55.3C133.3 56 166.7 54 200 54C233.3 54 266.7 56 300 59.3C333.3 62.7 366.7 67.3 400 70C433.3 72.7 466.7 73.3 500 72.5C533.3 71.7 566.7 69.3 600 65.8C633.3 62.3 666.7 57.7 700 54.7C733.3 51.7 766.7 50.3 800 50.7C833.3 51 866.7 53 900 56.2C933.3 59.3 966.7 63.7 983.3 65.8L1000 68L1000 101L983.3 101C966.7 101 933.3 101 900 101C866.7 101 833.3 101 800 101C766.7 101 733.3 101 700 101C666.7 101 633.3 101 600 101C566.7 101 533.3 101 500 101C466.7 101 433.3 101 400 101C366.7 101 333.3 101 300 101C266.7 101 233.3 101 200 101C166.7 101 133.3 101 100 101C66.7 101 33.3 101 16.7 101L0 101Z" fill="#003b04"></path><path d="M0 81L16.7 79.3C33.3 77.7 66.7 74.3 100 73.3C133.3 72.3 166.7 73.7 200 75C233.3 76.3 266.7 77.7 300 77C333.3 76.3 366.7 73.7 400 73.2C433.3 72.7 466.7 74.3 500 73.3C533.3 72.3 566.7 68.7 600 67.3C633.3 66 666.7 67 700 67.3C733.3 67.7 766.7 67.3 800 68.5C833.3 69.7 866.7 72.3 900 74C933.3 75.7 966.7 76.3 983.3 76.7L1000 77L1000 101L983.3 101C966.7 101 933.3 101 900 101C866.7 101 833.3 101 800 101C766.7 101 733.3 101 700 101C666.7 101 633.3 101 600 101C566.7 101 533.3 101 500 101C466.7 101 433.3 101 400 101C366.7 101 333.3 101 300 101C266.7 101 233.3 101 200 101C166.7 101 133.3 101 100 101C66.7 101 33.3 101 16.7 101L0 101Z" fill="#002500"></path><path d="M0 75L16.7 77.2C33.3 79.3 66.7 83.7 100 84.7C133.3 85.7 166.7 83.3 200 82.8C233.3 82.3 266.7 83.7 300 84.3C333.3 85 366.7 85 400 85.5C433.3 86 466.7 87 500 86.8C533.3 86.7 566.7 85.3 600 83.2C633.3 81 666.7 78 700 79.5C733.3 81 766.7 87 800 88.5C833.3 90 866.7 87 900 84.7C933.3 82.3 966.7 80.7 983.3 79.8L1000 79L1000 101L983.3 101C966.7 101 933.3 101 900 101C866.7 101 833.3 101 800 101C766.7 101 733.3 101 700 101C666.7 101 633.3 101 600 101C566.7 101 533.3 101 500 101C466.7 101 433.3 101 400 101C366.7 101 333.3 101 300 101C266.7 101 233.3 101 200 101C166.7 101 133.3 101 100 101C66.7 101 33.3 101 16.7 101L0 101Z" fill="#000000"></path></svg>