<svg id="visual" viewBox="0 0 960 50" width="960" height="50" xmlns="http://www.w3.org/2000/svg" xmlns:xlink="http://www.w3.org/1999/xlink" version="1.1"><path d="M0 26L22.8 24.5C45.7 23 91.3 20 137 17.3C182.7 14.7 228.3 12.3 274 11.2C319.7 10 365.3 10 411.2 12.5C457 15 503 20 548.8 22.8C594.7 25.7 640.3 26.3 686 25.5C731.7 24.7 777.3 22.3 823 21.3C868.7 20.3 914.3 20.7 937.2 20.8L960 21L960 51L937.2 51C914.3 51 868.7 51 823 51C777.3 51 731.7 51 686 51C640.3 51 594.7 51 548.8 51C503 51 457 51 411.2 51C365.3 51 319.7 51 274 51C228.3 51 182.7 51 137 51C91.3 51 45.7 51 22.8 51L0 51Z" fill="#01948a"></path><path d="M0 33L22.8 34.2C45.7 35.3 91.3 37.7 137 37.8C182.7 38 228.3 36 274 33.3C319.7 30.7 365.3 27.3 411.2 27.3C457 27.3 503 30.7 548.8 31.3C594.7 32 640.3 30 686 30.5C731.7 31 777.3 34 823 34.2C868.7 34.3 914.3 31.7 937.2 30.3L960 29L960 51L937.2 51C914.3 51 868.7 51 823 51C777.3 51 731.7 51 686 51C640.3 51 594.7 51 548.8 51C503 51 457 51 411.2 51C365.3 51 319.7 51 274 51C228.3 51 182.7 51 137 51C91.3 51 45.7 51 22.8 51L0 51Z" fill="#143850"></path></svg>