<svg id="visual" viewBox="0 0 900 50" width="900" height="50" xmlns="http://www.w3.org/2000/svg" xmlns:xlink="http://www.w3.org/1999/xlink" version="1.1"><path d="M0 7L25 8.5C50 10 100 13 150 13.3C200 13.7 250 11.3 300 10.3C350 9.3 400 9.7 450 13C500 16.3 550 22.7 600 26.8C650 31 700 33 750 29.7C800 26.3 850 17.7 875 13.3L900 9L900 51L875 51C850 51 800 51 750 51C700 51 650 51 600 51C550 51 500 51 450 51C400 51 350 51 300 51C250 51 200 51 150 51C100 51 50 51 25 51L0 51Z" fill="#ffffff" stroke-linecap="round" stroke-linejoin="miter"></path></svg>