<svg id="visual" viewBox="0 0 900 100" width="900" height="100" xmlns="http://www.w3.org/2000/svg" xmlns:xlink="http://www.w3.org/1999/xlink" version="1.1"><path d="M0 51L25 49.2C50 47.3 100 43.7 150 43.5C200 43.3 250 46.7 300 46.2C350 45.7 400 41.3 450 35.3C500 29.3 550 21.7 600 21.8C650 22 700 30 750 36.2C800 42.3 850 46.7 875 48.8L900 51L900 101L875 101C850 101 800 101 750 101C700 101 650 101 600 101C550 101 500 101 450 101C400 101 350 101 300 101C250 101 200 101 150 101C100 101 50 101 25 101L0 101Z" fill="#ffffff" stroke-linecap="round" stroke-linejoin="miter"></path></svg>